<?xml version="1.0" encoding="utf-8"?>
<!-- Generator: Adobe Illustrator 28.0.0, SVG Export Plug-In . SVG Version: 6.00 Build 0)  -->
<svg version="1.1" id="Layer_1" xmlns="http://www.w3.org/2000/svg" xmlns:xlink="http://www.w3.org/1999/xlink" x="0px" y="0px"
	 viewBox="0 0 45.7 43.7" style="enable-background:new 0 0 45.7 43.7;" xml:space="preserve">
<style type="text/css">
	.st0{fill:#FFFFFF;}
</style>
<path class="st0" d="M2.6,0h40.5c1.5,0,2.6,1.2,2.6,2.6l0,0c0,1.5-1.2,2.6-2.6,2.6H2.6C1.2,5.3,0,4.1,0,2.6l0,0C0,1.2,1.2,0,2.6,0z"
	/>
<path class="st0" d="M2.6,19.2h40.5c1.5,0,2.6,1.2,2.6,2.6l0,0c0,1.5-1.2,2.6-2.6,2.6H2.6c-1.5,0-2.6-1.2-2.6-2.6l0,0
	C0,20.4,1.2,19.2,2.6,19.2z"/>
<path class="st0" d="M2.6,38.5h40.5c1.5,0,2.6,1.2,2.6,2.6v0c0,1.5-1.2,2.6-2.6,2.6H2.6c-1.5,0-2.6-1.2-2.6-2.6v0
	C0,39.6,1.2,38.5,2.6,38.5z"/>
</svg>
